<mxfile host="app.diagrams.net" agent="Mozilla/5.0 (Macintosh; Intel Mac OS X 10_15_7) AppleWebKit/537.36 (KHTML, like Gecko) Chrome/128.0.0.0 Safari/537.36" version="24.7.12">
  <diagram name="Page-1" id="kUZTissiPhQ5TNX4cp6k">
    <mxGraphModel dx="1242" dy="759" grid="1" gridSize="10" guides="1" tooltips="1" connect="1" arrows="1" fold="1" page="1" pageScale="1" pageWidth="850" pageHeight="1100" math="0" shadow="0">
      <root>
        <mxCell id="0" />
        <mxCell id="1" parent="0" />
        <mxCell id="2x_NMSYdj06jEzthqJtd-4" value="" style="edgeStyle=orthogonalEdgeStyle;rounded=0;orthogonalLoop=1;jettySize=auto;html=1;" parent="1" source="cZ6sNAModDM2r1EJZchp-1" target="2x_NMSYdj06jEzthqJtd-3" edge="1">
          <mxGeometry relative="1" as="geometry" />
        </mxCell>
        <mxCell id="2x_NMSYdj06jEzthqJtd-5" value="Creating an instance" style="edgeLabel;html=1;align=center;verticalAlign=middle;resizable=0;points=[];" parent="2x_NMSYdj06jEzthqJtd-4" vertex="1" connectable="0">
          <mxGeometry x="0.025" relative="1" as="geometry">
            <mxPoint as="offset" />
          </mxGeometry>
        </mxCell>
        <mxCell id="cZ6sNAModDM2r1EJZchp-1" value="PassThroughHttpSender" style="rounded=1;whiteSpace=wrap;html=1;" parent="1" vertex="1">
          <mxGeometry x="110" y="80" width="180" height="60" as="geometry" />
        </mxCell>
        <mxCell id="2x_NMSYdj06jEzthqJtd-1" value="" style="endArrow=none;html=1;rounded=0;" parent="1" edge="1">
          <mxGeometry width="50" height="50" relative="1" as="geometry">
            <mxPoint x="320" y="160" as="sourcePoint" />
            <mxPoint x="320" y="40" as="targetPoint" />
          </mxGeometry>
        </mxCell>
        <mxCell id="2x_NMSYdj06jEzthqJtd-2" value="&lt;h1 style=&quot;margin-top: 0px;&quot;&gt;PassThroughHttpSender&lt;/h1&gt;&lt;p&gt;&lt;/p&gt;&lt;ul&gt;&lt;li&gt;When the ESB sends out the request from the ESB, there should be a transport sender to serve these outbound requests.&lt;/li&gt;&lt;li&gt;PassThroughHttpSender is creating the transport sender for this purpose.&lt;/li&gt;&lt;/ul&gt;&lt;p&gt;&lt;/p&gt;" style="text;html=1;whiteSpace=wrap;overflow=hidden;rounded=0;" parent="1" vertex="1">
          <mxGeometry x="335" y="40" width="505" height="120" as="geometry" />
        </mxCell>
        <mxCell id="2x_NMSYdj06jEzthqJtd-3" value="NHttpClientEventHandler" style="whiteSpace=wrap;html=1;rounded=1;" parent="1" vertex="1">
          <mxGeometry x="110" y="220" width="180" height="60" as="geometry" />
        </mxCell>
      </root>
    </mxGraphModel>
  </diagram>
</mxfile>
